<svg width="349" height="225" viewBox="0 0 349 225" fill="none" xmlns="http://www.w3.org/2000/svg">
<path d="M1.94246 222.429C1.37268 222.429 0.906521 222.249 0.543931 221.889C0.181341 221.529 0 221.066 0 220.5V170.357C0 169.791 0.181341 169.329 0.543931 168.969C0.906521 168.609 1.37268 168.429 1.94246 168.429H23.6978C27.9971 168.429 31.7266 169.097 34.8863 170.434C38.0978 171.72 40.5841 173.674 42.3453 176.297C44.1582 178.92 45.0648 182.237 45.0648 186.249C45.0648 190.209 44.1582 193.474 42.3453 196.046C40.5841 198.617 38.0978 200.52 34.8863 201.754C31.7266 202.989 27.9971 203.606 23.6978 203.606H14.4518V220.5C14.4518 221.066 14.2446 221.529 13.8302 221.889C13.4676 222.249 13.0015 222.429 12.4317 222.429H1.94246ZM14.2187 192.96H23.3094C25.5367 192.96 27.2978 192.394 28.5928 191.263C29.9395 190.131 30.613 188.409 30.613 186.094C30.613 184.14 30.0432 182.494 28.9036 181.157C27.764 179.82 25.8993 179.151 23.3094 179.151H14.2187V192.96Z" fill="#8790F4"/>
<path d="M50.847 222.429C50.2525 222.429 49.7661 222.249 49.3878 221.889C49.0094 221.529 48.8202 221.066 48.8202 220.5V170.357C48.8202 169.792 49.0094 169.329 49.3878 168.969C49.7661 168.609 50.2525 168.429 50.847 168.429H88.7061C89.3006 168.429 89.7871 168.609 90.1654 168.969C90.5437 169.329 90.7329 169.792 90.7329 170.357V177.609C90.7329 178.174 90.5437 178.637 90.1654 178.997C89.7871 179.357 89.3006 179.537 88.7061 179.537H62.8452V189.952H86.9226C87.5171 189.952 88.0035 190.157 88.3818 190.569C88.7602 190.929 88.9493 191.392 88.9493 191.957V198.669C88.9493 199.183 88.7602 199.646 88.3818 200.057C88.0035 200.417 87.5171 200.597 86.9226 200.597H62.8452V211.32H89.3547C89.9492 211.32 90.4356 211.5 90.8139 211.86C91.1922 212.22 91.3814 212.683 91.3814 213.249V220.5C91.3814 221.066 91.1922 221.529 90.8139 221.889C90.4356 222.249 89.9492 222.429 89.3547 222.429H50.847Z" fill="#8790F4"/>
<path d="M95.8441 222.429C95.2693 222.429 94.7991 222.249 94.4334 221.889C94.0677 221.529 93.8848 221.066 93.8848 220.5V170.357C93.8848 169.792 94.0677 169.329 94.4334 168.969C94.7991 168.609 95.2693 168.429 95.8441 168.429H117.161C123.9 168.429 129.203 169.972 133.07 173.057C136.988 176.092 138.947 180.412 138.947 186.017C138.947 189.669 138.033 192.754 136.204 195.274C134.428 197.794 132.077 199.697 129.151 200.983L139.966 219.96C140.123 220.269 140.201 220.552 140.201 220.809C140.201 221.22 140.018 221.606 139.653 221.966C139.339 222.274 138.947 222.429 138.477 222.429H128.132C127.14 222.429 126.408 222.197 125.938 221.734C125.468 221.22 125.128 220.757 124.919 220.346L115.985 203.374H107.913V220.5C107.913 221.066 107.73 221.529 107.364 221.889C106.999 222.249 106.528 222.429 105.954 222.429H95.8441ZM107.913 192.497H117.004C119.459 192.497 121.288 191.906 122.49 190.723C123.744 189.54 124.371 187.92 124.371 185.863C124.371 183.857 123.77 182.237 122.568 181.003C121.419 179.769 119.564 179.152 117.004 179.152H107.913V192.497Z" fill="#8790F4"/>
<path d="M144.73 222.429C144.136 222.429 143.65 222.249 143.272 221.889C142.894 221.529 142.705 221.066 142.705 220.5V170.357C142.705 169.792 142.894 169.329 143.272 168.969C143.65 168.609 144.136 168.429 144.73 168.429H181.908C182.502 168.429 182.988 168.609 183.366 168.969C183.798 169.329 184.014 169.792 184.014 170.357V178.149C184.014 178.714 183.798 179.177 183.366 179.537C182.988 179.897 182.502 180.077 181.908 180.077H156.961V191.417H180.288C180.882 191.417 181.368 191.623 181.746 192.034C182.178 192.394 182.394 192.857 182.394 193.423V201.137C182.394 201.652 182.178 202.114 181.746 202.526C181.368 202.886 180.882 203.066 180.288 203.066H156.961V220.5C156.961 221.066 156.772 221.529 156.394 221.889C156.016 222.249 155.53 222.429 154.936 222.429H144.73Z" fill="#8790F4"/>
<path d="M189.796 222.429C189.202 222.429 188.716 222.249 188.337 221.889C187.959 221.529 187.77 221.066 187.77 220.5V170.357C187.77 169.792 187.959 169.329 188.337 168.969C188.716 168.609 189.202 168.429 189.796 168.429H227.656C228.25 168.429 228.737 168.609 229.115 168.969C229.493 169.329 229.682 169.792 229.682 170.357V177.609C229.682 178.174 229.493 178.637 229.115 178.997C228.737 179.357 228.25 179.537 227.656 179.537H201.795V189.952H225.872C226.467 189.952 226.953 190.157 227.331 190.569C227.71 190.929 227.899 191.392 227.899 191.957V198.669C227.899 199.183 227.71 199.646 227.331 200.057C226.953 200.417 226.467 200.597 225.872 200.597H201.795V211.32H228.304C228.899 211.32 229.385 211.5 229.763 211.86C230.142 212.22 230.331 212.683 230.331 213.249V220.5C230.331 221.066 230.142 221.529 229.763 221.889C229.385 222.249 228.899 222.429 228.304 222.429H189.796Z" fill="#8790F4"/>
<path d="M234.875 222.429C234.277 222.429 233.787 222.249 233.406 221.889C233.025 221.529 232.834 221.066 232.834 220.5V170.357C232.834 169.792 233.025 169.329 233.406 168.969C233.787 168.609 234.277 168.429 234.875 168.429H245.815C246.414 168.429 246.904 168.609 247.285 168.969C247.666 169.329 247.856 169.792 247.856 170.357V220.5C247.856 221.066 247.666 221.529 247.285 221.889C246.904 222.249 246.414 222.429 245.815 222.429H234.875Z" fill="#8790F4"/>
<path d="M267.553 222.429C266.96 222.429 266.474 222.249 266.097 221.889C265.719 221.529 265.53 221.066 265.53 220.5V180.54H251.13C250.537 180.54 250.052 180.36 249.674 180C249.297 179.589 249.108 179.126 249.108 178.612V170.357C249.108 169.792 249.297 169.329 249.674 168.969C250.052 168.609 250.537 168.429 251.13 168.429H294.654C295.247 168.429 295.732 168.609 296.11 168.969C296.487 169.329 296.676 169.792 296.676 170.357V178.612C296.676 179.126 296.487 179.589 296.11 180C295.732 180.36 295.247 180.54 294.654 180.54H280.254V220.5C280.254 221.066 280.065 221.529 279.688 221.889C279.31 222.249 278.825 222.429 278.231 222.429H267.553Z" fill="#8790F4"/>
<path d="M323.55 225C318.713 225 314.507 224.178 310.931 222.536C307.356 220.893 304.569 218.428 302.571 215.143C300.573 211.802 299.469 207.64 299.259 202.657C299.206 200.302 299.18 197.947 299.18 195.593C299.18 193.238 299.206 190.856 299.259 188.446C299.469 183.518 300.573 179.383 302.571 176.043C304.622 172.647 307.435 170.101 311.01 168.403C314.586 166.706 318.766 165.857 323.55 165.857C328.283 165.857 332.436 166.706 336.012 168.403C339.64 170.101 342.479 172.647 344.53 176.043C346.58 179.383 347.684 183.518 347.842 188.446C347.947 190.856 348 193.238 348 195.593C348 197.947 347.947 200.302 347.842 202.657C347.632 207.64 346.528 211.802 344.53 215.143C342.532 218.428 339.745 220.893 336.17 222.536C332.594 224.178 328.388 225 323.55 225ZM323.55 213.171C326.337 213.171 328.598 212.295 330.333 210.543C332.121 208.79 333.067 205.997 333.173 202.164C333.278 199.755 333.33 197.482 333.33 195.346C333.33 193.211 333.278 190.993 333.173 188.693C333.067 186.119 332.594 184.038 331.753 182.45C330.964 180.807 329.86 179.602 328.44 178.836C327.021 178.069 325.391 177.686 323.55 177.686C321.763 177.686 320.159 178.069 318.739 178.836C317.32 179.602 316.189 180.807 315.348 182.45C314.507 184.038 314.034 186.119 313.928 188.693C313.876 190.993 313.85 193.211 313.85 195.346C313.85 197.482 313.876 199.755 313.928 202.164C314.086 205.997 315.033 208.79 316.768 210.543C318.503 212.295 320.764 213.171 323.55 213.171Z" fill="#8790F4"/>
<path d="M54.4484 71.3894C53.5061 72.3402 53.079 73.5514 53.079 74.8469V148.867C53.079 150.163 53.5061 151.374 54.4484 152.325C55.3923 153.277 56.6013 153.714 57.9003 153.714H87.8055C95.3652 153.714 101.863 152.587 107.226 150.245L107.239 150.239C112.72 147.799 116.926 144.065 119.782 139.049C122.695 134.063 124.251 127.879 124.561 120.597L124.562 120.577L124.563 120.558C124.638 117.282 124.676 114.382 124.676 111.857C124.676 109.333 124.638 106.394 124.563 103.044L124.563 103.033L124.562 103.022C124.328 96.0135 122.763 90.0018 119.76 85.0847C116.758 80.0925 112.456 76.3378 106.924 73.8275C101.405 71.2472 94.8213 70 87.2413 70H57.9003C56.6013 70 55.3923 70.4369 54.4484 71.3894ZM54.4484 71.3894L55.869 72.7971L54.4484 71.3894ZM98.3263 128.026L98.3138 128.051L98.302 128.076C97.4447 129.868 96.1575 131.167 94.3914 132.031C92.6345 132.851 90.2826 133.316 87.2413 133.316H77.2792V90.3984H86.677C91.3449 90.3984 94.4764 91.5403 96.4504 93.4719L96.4724 93.4934L96.495 93.5143C98.4984 95.3575 99.7703 98.4903 99.9126 103.375L99.9138 103.416L99.9168 103.458C100.065 105.546 100.137 107.434 100.137 109.124V109.167L100.139 109.21C100.212 110.899 100.212 112.588 100.139 114.276L100.137 114.319V114.362C100.137 116.053 100.065 117.98 99.9164 120.148L99.9132 120.195L99.9122 120.242C99.8407 123.631 99.2693 126.187 98.3263 128.026Z" stroke="#8790F4" stroke-width="4"/>
<path d="M129.362 152.339L129.463 152.455L129.58 152.555C130.421 153.269 131.441 153.714 132.598 153.714H146.715C148.188 153.714 149.775 153.432 150.879 152.337L150.926 152.29L150.97 152.24C151.568 151.562 152.105 150.808 152.386 149.998L156.25 139.707H184.138L188.107 150.008C188.389 150.814 188.924 151.565 189.52 152.24L189.608 152.34L189.708 152.427C190.81 153.384 192.228 153.714 193.659 153.714H207.777C208.956 153.714 210.048 153.304 210.907 152.451C211.724 151.64 212.302 150.586 212.302 149.323C212.302 148.71 212.185 148.097 211.917 147.519L185.118 74.5695C184.761 73.3472 184.035 72.3311 183.048 71.5246C181.881 70.4172 180.343 70 178.738 70H161.751C160.097 70 158.546 70.4408 157.325 71.5289C156.388 72.3561 155.718 73.3759 155.372 74.5689L128.426 147.606L128.389 147.706L128.363 147.809C128.238 148.302 128.187 148.812 128.187 149.323C128.187 150.484 128.641 151.504 129.362 152.339ZM162.393 119.309L170.15 97.2227L178.076 119.309H162.393Z" stroke="#8790F4" stroke-width="4"/>
<path d="M225.526 152.338L226.933 150.917L225.526 152.338C226.482 153.285 227.699 153.714 229.002 153.714H244.177C245.48 153.714 246.698 153.285 247.654 152.338L246.247 150.917L247.654 152.338C248.612 151.389 249.051 150.174 249.051 148.867V91.8788H267.514C268.818 91.8788 270.035 91.4496 270.991 90.5025L271.039 90.4556L271.083 90.4057C271.918 89.4596 272.388 88.3133 272.388 87.0318V74.8469C272.388 73.5402 271.949 72.3248 270.991 71.3763C270.035 70.4292 268.818 70 267.514 70H205.665C204.362 70 203.145 70.4292 202.189 71.3762C201.231 72.3248 200.791 73.5402 200.791 74.8469V87.0318C200.791 88.3133 201.261 89.4596 202.097 90.4057L202.141 90.4556L202.189 90.5025C203.145 91.4496 204.362 91.8788 205.665 91.8788H224.128V148.867C224.128 150.174 224.568 151.389 225.526 152.338Z" stroke="#8790F4" stroke-width="4"/>
<path d="M285.989 71.4097C285.07 72.3638 284.662 73.5682 284.662 74.8469V148.867C284.662 150.146 285.07 151.351 285.989 152.305C286.914 153.265 288.11 153.714 289.404 153.714H341.503C342.796 153.714 343.993 153.265 344.917 152.305C345.836 151.35 346.245 150.146 346.245 148.867V138.163C346.245 136.884 345.836 135.68 344.917 134.726C343.993 133.765 342.796 133.316 341.503 133.316H307.637V121.487H338.212C339.506 121.487 340.702 121.037 341.627 120.077L341.673 120.029L341.716 119.979C342.516 119.029 342.954 117.894 342.954 116.64V106.733C342.954 105.476 342.56 104.29 341.673 103.344C340.78 102.312 339.576 101.772 338.212 101.772H307.637V90.3984H340.625C341.919 90.3984 343.115 89.9489 344.04 88.9887L342.599 87.6012L344.04 88.9886C344.959 88.0345 345.367 86.8301 345.367 85.5514V74.8469C345.367 73.5683 344.959 72.3639 344.04 71.4097C343.115 70.4495 341.919 70 340.625 70H289.404C288.11 70 286.914 70.4494 285.989 71.4097ZM285.989 71.4097L287.43 72.7971L285.989 71.4097Z" stroke="#8790F4" stroke-width="4"/>
<path d="M18.1218 115.714C14.5248 115.714 11.3969 115.107 8.7383 113.893C6.07966 112.679 4.00751 110.857 2.52179 108.429C1.03608 105.96 0.215005 102.883 0.0586143 99.2C0.0195167 97.4595 0 95.719 0 93.9786C0 92.2381 0.0195167 90.4774 0.0586143 88.6964C0.215005 85.0536 1.03608 81.9976 2.52179 79.5286C4.0466 77.019 6.13831 75.1369 8.79695 73.8821C11.4556 72.6274 14.5639 72 18.1218 72C21.6406 72 24.7293 72.6274 27.3879 73.8821C30.0856 75.1369 32.1969 77.019 33.7217 79.5286C35.2465 81.9976 36.0676 85.0536 36.1849 88.6964C36.2631 90.4774 36.3022 92.2381 36.3022 93.9786C36.3022 95.719 36.2631 97.4595 36.1849 99.2C36.0285 102.883 35.2074 105.96 33.7217 108.429C32.236 110.857 30.1638 112.679 27.5052 113.893C24.8466 115.107 21.7188 115.714 18.1218 115.714ZM18.1218 106.971C20.1939 106.971 21.8751 106.324 23.1654 105.029C24.4947 103.733 25.1984 101.669 25.2766 98.8357C25.3548 97.0548 25.3939 95.375 25.3939 93.7964C25.3939 92.2179 25.3548 90.5786 25.2766 88.8786C25.1984 86.9762 24.8465 85.4381 24.221 84.2643C23.6345 83.05 22.8135 82.1595 21.7578 81.5929C20.7022 81.0262 19.4902 80.7429 18.1218 80.7429C16.7925 80.7429 15.6 81.0262 14.5443 81.5929C13.4887 82.1595 12.6481 83.05 12.0225 84.2643C11.397 85.4381 11.0451 86.9762 10.9669 88.8786C10.9278 90.5786 10.9082 92.2179 10.9082 93.7964C10.9082 95.375 10.9278 97.0548 10.9669 98.8357C11.0842 101.669 11.7879 103.733 13.0781 105.029C14.3684 106.324 16.0496 106.971 18.1218 106.971Z" fill="#8790F4"/>
<path d="M1.78828 52.7143C1.26372 52.7143 0.834533 52.5386 0.50072 52.1871C0.166906 51.8357 0 51.3839 0 50.8316V1.88266C0 1.33041 0.166906 0.878572 0.50072 0.527145C0.834533 0.175715 1.26372 0 1.78828 0H35.1934C35.718 0 36.1472 0.175715 36.481 0.527145C36.8148 0.878572 36.9817 1.33041 36.9817 1.88266V8.96143C36.9817 9.51367 36.8148 9.96551 36.481 10.3169C36.1472 10.6684 35.718 10.8441 35.1934 10.8441H12.3749V21.0104H33.6197C34.1443 21.0104 34.5735 21.2112 34.9073 21.6129C35.2411 21.9643 35.408 22.4161 35.408 22.9684V29.52C35.408 30.022 35.2411 30.4739 34.9073 30.8755C34.5735 31.2269 34.1443 31.4027 33.6197 31.4027H12.3749V41.8702H35.7657C36.2902 41.8702 36.7194 42.0459 37.0532 42.3973C37.387 42.7488 37.554 43.2006 37.554 43.7529V50.8316C37.554 51.3839 37.387 51.8357 37.0532 52.1871C36.7194 52.5386 36.2902 52.7143 35.7657 52.7143H1.78828Z" fill="#8790F4"/>
<path d="M43.039 52.7143C42.5317 52.7143 42.1166 52.5386 41.7937 52.1871C41.4709 51.8357 41.3094 51.3839 41.3094 50.8316V1.88266C41.3094 1.33041 41.4709 0.878572 41.7937 0.527145C42.1166 0.175715 42.5317 0 43.039 0H50.3725C51.1566 0 51.7101 0.200817 52.0329 0.60245C52.4019 0.953877 52.6325 1.23 52.7248 1.43082L69.6057 30.4237V1.88266C69.6057 1.33041 69.7671 0.878572 70.09 0.527145C70.4128 0.175715 70.8279 0 71.3353 0H79.6374C80.1447 0 80.5598 0.175715 80.8827 0.527145C81.2056 0.878572 81.367 1.33041 81.367 1.88266V50.8316C81.367 51.3337 81.2056 51.7855 80.8827 52.1871C80.5598 52.5386 80.1447 52.7143 79.6374 52.7143H72.2347C71.4967 52.7143 70.9433 52.5135 70.5743 52.1118C70.2514 51.7102 70.0439 51.4341 69.9516 51.2835L53.0707 23.4202V50.8316C53.0707 51.3839 52.9093 51.8357 52.5864 52.1871C52.2636 52.5386 51.8485 52.7143 51.3411 52.7143H43.039Z" fill="#8790F4"/>
<path d="M106.398 52.7143C101.796 52.7143 97.8475 51.9577 94.5532 50.4446C91.3072 48.9316 88.7638 46.7107 86.9228 43.7821C85.1302 40.8536 84.1371 37.2173 83.9433 32.8732C83.8948 30.872 83.8706 28.7244 83.8706 26.4304C83.8706 24.1363 83.8948 21.9399 83.9433 19.8411C84.1371 15.5946 85.1545 12.0071 86.9954 9.07857C88.8364 6.10119 91.4041 3.85595 94.6985 2.34286C97.9929 0.780953 101.893 0 106.398 0C109.596 0 112.551 0.414881 115.264 1.24464C117.977 2.0256 120.351 3.19702 122.386 4.75893C124.421 6.27202 125.995 8.12679 127.11 10.3232C128.272 12.4708 128.878 14.9113 128.926 17.6446C128.975 18.0839 128.829 18.45 128.49 18.7429C128.2 19.0357 127.836 19.1821 127.4 19.1821H117.59C116.96 19.1821 116.475 19.0601 116.136 18.8161C115.797 18.5232 115.506 18.0107 115.264 17.2786C114.586 14.6917 113.472 12.9345 111.921 12.0071C110.42 11.031 108.554 10.5429 106.326 10.5429C103.661 10.5429 101.554 11.2994 100.003 12.8125C98.4531 14.2768 97.6053 16.7417 97.46 20.2071C97.3146 24.2095 97.3146 28.3095 97.46 32.5071C97.6053 35.9726 98.4531 38.4619 100.003 39.975C101.554 41.4393 103.661 42.1714 106.326 42.1714C108.554 42.1714 110.444 41.6833 111.994 40.7071C113.544 39.731 114.634 37.9738 115.264 35.4357C115.458 34.7036 115.724 34.2155 116.064 33.9714C116.451 33.6786 116.96 33.5321 117.59 33.5321H127.4C127.836 33.5321 128.2 33.6786 128.49 33.9714C128.829 34.2643 128.975 34.6304 128.926 35.0696C128.878 37.803 128.272 40.2679 127.11 42.4643C125.995 44.6119 124.421 46.4667 122.386 48.0286C120.351 49.5417 117.977 50.7131 115.264 51.5429C112.551 52.3238 109.596 52.7143 106.398 52.7143Z" fill="#8790F4"/>
<path d="M153.935 52.7143C149.47 52.7143 145.587 51.9821 142.286 50.5179C138.986 49.0536 136.414 46.8571 134.569 43.9286C132.725 40.9512 131.706 37.2417 131.512 32.8C131.463 30.7012 131.439 28.6024 131.439 26.5036C131.439 24.4048 131.463 22.2815 131.512 20.1339C131.706 15.7411 132.725 12.056 134.569 9.07857C136.462 6.05238 139.059 3.78274 142.359 2.26964C145.66 0.756548 149.518 0 153.935 0C158.303 0 162.137 0.756548 165.438 2.26964C168.786 3.78274 171.407 6.05238 173.3 9.07857C175.193 12.056 176.212 15.7411 176.358 20.1339C176.455 22.2815 176.504 24.4048 176.504 26.5036C176.504 28.6024 176.455 30.7012 176.358 32.8C176.164 37.2417 175.145 40.9512 173.3 43.9286C171.456 46.8571 168.884 49.0536 165.583 50.5179C162.283 51.9821 158.4 52.7143 153.935 52.7143ZM153.935 42.1714C156.507 42.1714 158.594 41.3905 160.196 39.8286C161.846 38.2667 162.72 35.7774 162.817 32.3607C162.914 30.2131 162.962 28.1875 162.962 26.2839C162.962 24.3804 162.914 22.4036 162.817 20.3536C162.72 18.0595 162.283 16.2048 161.506 14.7893C160.778 13.325 159.759 12.2512 158.449 11.5679C157.138 10.8845 155.634 10.5429 153.935 10.5429C152.285 10.5429 150.804 10.8845 149.494 11.5679C148.183 12.2512 147.14 13.325 146.363 14.7893C145.587 16.2048 145.15 18.0595 145.053 20.3536C145.004 22.4036 144.98 24.3804 144.98 26.2839C144.98 28.1875 145.004 30.2131 145.053 32.3607C145.198 35.7774 146.072 38.2667 147.674 39.8286C149.275 41.3905 151.362 42.1714 153.935 42.1714Z" fill="#8790F4"/>
<path d="M180.737 52.7143C180.229 52.7143 179.814 52.5386 179.491 52.1871C179.169 51.8357 179.007 51.3839 179.007 50.8316V1.88266C179.007 1.33041 179.169 0.878572 179.491 0.527145C179.814 0.175715 180.229 0 180.737 0H188.07C188.854 0 189.408 0.200817 189.731 0.60245C190.1 0.953877 190.33 1.23 190.423 1.43082L207.303 30.4237V1.88266C207.303 1.33041 207.465 0.878572 207.788 0.527145C208.111 0.175715 208.526 0 209.033 0H217.335C217.842 0 218.258 0.175715 218.58 0.527145C218.903 0.878572 219.065 1.33041 219.065 1.88266V50.8316C219.065 51.3337 218.903 51.7855 218.58 52.1871C218.258 52.5386 217.842 52.7143 217.335 52.7143H209.932C209.194 52.7143 208.641 52.5135 208.272 52.1118C207.949 51.7102 207.742 51.4341 207.649 51.2835L190.768 23.4202V50.8316C190.768 51.3839 190.607 51.8357 190.284 52.1871C189.961 52.5386 189.546 52.7143 189.039 52.7143H180.737Z" fill="#8790F4"/>
<path d="M237.586 52.7143C237.071 52.7143 236.649 52.5386 236.322 52.1871C235.994 51.8357 235.83 51.3839 235.83 50.8316V11.8231H223.325C222.809 11.8231 222.388 11.6473 222.06 11.2959C221.732 10.8943 221.568 10.4425 221.568 9.94041V1.88266C221.568 1.33041 221.732 0.878572 222.06 0.527145C222.388 0.175715 222.809 0 223.325 0H261.121C261.636 0 262.058 0.175715 262.386 0.527145C262.714 0.878572 262.878 1.33041 262.878 1.88266V9.94041C262.878 10.4425 262.714 10.8943 262.386 11.2959C262.058 11.6473 261.636 11.8231 261.121 11.8231H248.616V50.8316C248.616 51.3839 248.452 51.8357 248.124 52.1871C247.796 52.5386 247.375 52.7143 246.86 52.7143H237.586Z" fill="#8790F4"/>
<path d="M267.129 52.7143C266.616 52.7143 266.197 52.5386 265.871 52.1871C265.544 51.8357 265.381 51.3839 265.381 50.8316V1.88266C265.381 1.33041 265.544 0.878572 265.871 0.527145C266.197 0.175715 266.616 0 267.129 0H286.141C292.152 0 296.882 1.50612 300.33 4.51837C303.825 7.48041 305.572 11.6976 305.572 17.1698C305.572 20.7343 304.757 23.7465 303.126 26.2065C301.542 28.6665 299.445 30.5241 296.835 31.7792L306.481 50.3045C306.621 50.6057 306.691 50.8818 306.691 51.1329C306.691 51.5345 306.528 51.911 306.201 52.2625C305.922 52.5637 305.572 52.7143 305.153 52.7143H295.926C295.041 52.7143 294.389 52.4884 293.969 52.0365C293.55 51.5345 293.247 51.0827 293.061 50.681L285.092 34.1137H277.893V50.8316C277.893 51.3839 277.73 51.8357 277.404 52.1871C277.077 52.5386 276.658 52.7143 276.145 52.7143H267.129ZM277.893 23.4955H286.001C288.191 23.4955 289.822 22.9182 290.894 21.7635C292.012 20.6088 292.571 19.0273 292.571 17.0192C292.571 15.0612 292.035 13.4798 290.964 12.2749C289.939 11.07 288.284 10.4676 286.001 10.4676H277.893V23.4955Z" fill="#8790F4"/>
<path d="M312.234 52.7143C311.71 52.7143 311.281 52.5386 310.947 52.1871C310.613 51.8357 310.446 51.3839 310.446 50.8316V1.88266C310.446 1.33041 310.613 0.878572 310.947 0.527145C311.281 0.175715 311.71 0 312.234 0H345.639C346.164 0 346.593 0.175715 346.927 0.527145C347.261 0.878572 347.428 1.33041 347.428 1.88266V8.96143C347.428 9.51367 347.261 9.96551 346.927 10.3169C346.593 10.6684 346.164 10.8441 345.639 10.8441H322.821V21.0104H344.066C344.59 21.0104 345.019 21.2112 345.353 21.6129C345.687 21.9643 345.854 22.4161 345.854 22.9684V29.52C345.854 30.022 345.687 30.4739 345.353 30.8755C345.019 31.2269 344.59 31.4027 344.066 31.4027H322.821V41.8702H346.212C346.736 41.8702 347.165 42.0459 347.499 42.3973C347.833 42.7488 348 43.2006 348 43.7529V50.8316C348 51.3839 347.833 51.8357 347.499 52.1871C347.165 52.5386 346.736 52.7143 346.212 52.7143H312.234Z" fill="#8790F4"/>
</svg>
